<svg width="35" height="36" viewBox="0 0 35 36" fill="none" xmlns="http://www.w3.org/2000/svg">
<path d="M22.1437 3.41667C26.0958 3.41667 29.2896 4.97708 29.3333 8.94375V31.0813C29.3333 31.3292 29.275 31.5771 29.1583 31.7958C28.9687 32.1458 28.6479 32.4083 28.2542 32.525C27.875 32.6417 27.4521 32.5833 27.1021 32.3792L17.6521 27.6542L8.1875 32.3792C7.97021 32.4944 7.72083 32.5688 7.47292 32.5688C6.65625 32.5688 6 31.8979 6 31.0813V8.94375C6 4.97708 9.20833 3.41667 13.1458 3.41667H22.1437ZM23.1354 12.225H12.1542C11.5271 12.225 11.0167 12.7354 11.0167 13.3771C11.0167 14.0173 11.5271 14.5292 12.1542 14.5292H23.1354C23.7625 14.5292 24.2729 14.0173 24.2729 13.3771C24.2729 12.7354 23.7625 12.225 23.1354 12.225Z" fill="#E4E3E2"/>
</svg>
