<svg width="35" height="36" viewBox="0 0 35 36" fill="none" xmlns="http://www.w3.org/2000/svg">
<path d="M13.6757 30.7945V26.3353C13.6757 25.197 14.6052 24.2742 15.7519 24.2742H19.9434C20.494 24.2742 21.0221 24.4913 21.4115 24.8779C21.8008 25.2644 22.0196 25.7886 22.0196 26.3353V30.7945C22.0161 31.2677 22.203 31.7227 22.5389 32.0586C22.8747 32.3944 23.3317 32.5833 23.8085 32.5833H26.6681C28.0036 32.5868 29.2857 32.0625 30.2313 31.1262C31.1769 30.1899 31.7083 28.9185 31.7083 27.5927V14.8892C31.7083 13.8182 31.2301 12.8023 30.4026 12.1151L20.6746 4.40231C18.9824 3.04999 16.5579 3.09365 14.9162 4.50601L5.41023 12.1151C4.54358 12.782 4.0256 13.8009 4 14.8892V27.5797C4 30.3431 6.2566 32.5833 9.04025 32.5833H11.8346C12.8247 32.5833 13.6294 31.7903 13.6365 30.8074L13.6757 30.7945Z" fill="#2B9FDC"/>
</svg>
