<svg width="35" height="36" viewBox="0 0 35 36" fill="none" xmlns="http://www.w3.org/2000/svg">
<path d="M17.3863 3.41667C24.186 3.41667 29.7917 8.83859 29.7917 15.5467C29.7917 18.9271 28.5623 22.0653 26.5389 24.7252C24.3066 27.6593 21.5552 30.2157 18.4583 32.2223C17.7495 32.686 17.1098 32.721 16.3319 32.2223C13.2173 30.2157 10.466 27.6593 8.25281 24.7252C6.22789 22.0653 5 18.9271 5 15.5467C5 8.83859 10.6057 3.41667 17.3863 3.41667ZM17.3863 11.8412C15.1378 11.8412 13.3041 13.6947 13.3041 15.9244C13.3041 18.1717 15.1378 19.9391 17.3863 19.9391C19.6362 19.9391 21.4876 18.1717 21.4876 15.9244C21.4876 13.6947 19.6362 11.8412 17.3863 11.8412Z" fill="#2B9FDC"/>
</svg>
