<svg width="25" height="25" viewBox="0 0 25 25" fill="none" xmlns="http://www.w3.org/2000/svg">
<path d="M15.7755 2.38229C18.4855 2.38229 20.6755 3.45229 20.7055 6.17229V21.3523C20.7055 21.5223 20.6655 21.6923 20.5855 21.8423C20.4555 22.0823 20.2355 22.2623 19.9655 22.3423C19.7055 22.4223 19.4155 22.3823 19.1755 22.2423L12.6955 19.0023L6.20547 22.2423C6.05647 22.3213 5.88547 22.3723 5.71547 22.3723C5.15547 22.3723 4.70547 21.9123 4.70547 21.3523V6.17229C4.70547 3.45229 6.90547 2.38229 9.60547 2.38229H15.7755ZM16.4555 8.42229H8.92548C8.49548 8.42229 8.14547 8.77229 8.14547 9.21229C8.14547 9.65129 8.49548 10.0023 8.92548 10.0023H16.4555C16.8855 10.0023 17.2355 9.65129 17.2355 9.21229C17.2355 8.77229 16.8855 8.42229 16.4555 8.42229Z" fill="#F2F2F2"/>
</svg>
